# xmcd CD database file
#
# Track frame offsets:
#	150
#	22746
#	38326
#	60751
#	82052
#	114079
#	133954
#	156379
#	172054
#	191780
#	212406
#	237156
#	262657
#
# Disc length: 3782 seconds
#
# Revision: 0
# Processed by: cddbd v1.5.1PL0 Copyright (c) Steve Scherf et al.
# Submitted via: CDex 1.51
#
DISCID=9d0ec40d
DTITLE=DA PUMP - 疾風乱舞 -EPISODE II-
DYEAR=2004
DGENRE=JPop
TTITLE0=亜流NOISE
TTITLE1=琉STYLE
TTITLE2=You are the "ONE"
TTITLE3=Night Walk
TTITLE4=Silent Rain
TTITLE5=Caliente Baile
TTITLE6=GET ON THE DANCE FLOOR
TTITLE7=Riddim to Go
TTITLE8=Make it hot '04
TTITLE9=Cross Over
TTITLE10=Your Song
TTITLE11=轍 -WADACHI-
TTITLE12=波風 -NAMIKAJI-
EXTD=YEAR: 2004
EXTT0=
EXTT1=
EXTT2=
EXTT3=
EXTT4=
EXTT5=
EXTT6=
EXTT7=
EXTT8=
EXTT9=
EXTT10=
EXTT11=
EXTT12=
PLAYORDER=
